<svg width="24" height="24" viewBox="0 0 24 24" fill="none" xmlns="http://www.w3.org/2000/svg">
<path d="M12 2C10.0222 2 8.0888 2.58649 6.4443 3.6853C4.79981 4.78412 3.51809 6.34591 2.76121 8.17317C2.00433 10.0004 1.8063 12.0111 2.19215 13.9509C2.578 15.8907 3.53041 17.6725 4.92894 19.0711C6.32746 20.4696 8.10929 21.422 10.0491 21.8079C11.9889 22.1937 13.9996 21.9957 15.8268 21.2388C17.6541 20.4819 19.2159 19.2002 20.3147 17.5557C21.4135 15.9112 22 13.9778 22 12C21.9971 9.34872 20.9427 6.80684 19.0679 4.9321C17.1932 3.05736 14.6513 2.00287 12 2ZM12 20.5C10.3518 20.5 8.37041 19.9157 7 19C5.62959 18.0843 4.63073 17.0227 4 15.5C3.36927 13.9773 3.17846 12.1165 3.5 10.5C3.82154 8.88349 4.83456 7.16544 6 6C7.16544 4.83456 8.48773 4.00685 10.1042 3.6853C11.7207 3.36376 13.9773 3.36927 15.5 4C17.0227 4.63073 18.0843 5.62959 19 7C19.9157 8.37041 20.5 10.3518 20.5 12C20.4976 14.2094 19.5623 16.4377 18 18C16.4377 19.5623 14.2094 20.4976 12 20.5Z" fill="white"/>
<path d="M11.9998 9.5C11.7788 9.5 11.5669 9.5878 11.4106 9.74408C11.2543 9.90036 11.1665 10.1123 11.1665 10.3333V17C11.1665 17.221 11.2543 17.433 11.4106 17.5893C11.5669 17.7455 11.7788 17.8333 11.9998 17.8333C12.2209 17.8333 12.4328 17.7455 12.5891 17.5893C12.7454 17.433 12.8332 17.221 12.8332 17V10.3333C12.8332 10.1123 12.7454 9.90036 12.5891 9.74408C12.4328 9.5878 12.2209 9.5 11.9998 9.5Z" fill="white"/>
<path d="M11.9998 7.83464C12.4601 7.83464 12.8332 7.46154 12.8332 7.0013C12.8332 6.54106 12.4601 6.16797 11.9998 6.16797C11.5396 6.16797 11.1665 6.54106 11.1665 7.0013C11.1665 7.46154 11.5396 7.83464 11.9998 7.83464Z" fill="white"/>
</svg>
