<svg width="75" height="74" viewBox="0 0 75 74" fill="none" xmlns="http://www.w3.org/2000/svg">
<path fill-rule="evenodd" clip-rule="evenodd" d="M4.37756 19.2149C3.31866 18.156 3.31864 16.4391 4.37753 15.3803L15.8816 3.87619C16.9405 2.81729 18.6573 2.81732 19.7162 3.87622C20.7751 4.93512 20.7752 6.65196 19.7163 7.71086L8.2122 19.2149C7.1533 20.2738 5.43646 20.2738 4.37756 19.2149ZM53.1852 3.87918C54.2441 2.82028 55.9609 2.82026 57.0198 3.87916L68.5239 15.3832C69.5828 16.4421 69.5827 18.159 68.5238 19.2179C67.4649 20.2768 65.7481 20.2768 64.6892 19.2179L53.1851 7.71382C52.1262 6.65492 52.1263 4.93808 53.1852 3.87918ZM36.4528 67.0631C51.4431 67.0631 63.5952 54.911 63.5952 39.9207C63.5952 24.9304 51.4431 12.7783 36.4528 12.7783C21.4625 12.7783 9.3104 24.9304 9.3104 39.9207C9.3104 54.911 21.4625 67.0631 36.4528 67.0631ZM36.4528 72.459C54.4232 72.459 68.991 57.8911 68.991 39.9207C68.991 21.9503 54.4232 7.38249 36.4528 7.38249C18.4824 7.38249 3.91457 21.9503 3.91457 39.9207C3.91457 57.8911 18.4824 72.459 36.4528 72.459ZM22.0833 40.145C22.0833 41.8138 23.4362 43.1667 25.105 43.1667H34.2933V53.0333C34.2933 54.7703 35.7014 56.1783 37.4383 56.1783C39.1753 56.1783 40.5833 54.7703 40.5833 53.0333V43.1667H50.45C52.1188 43.1667 53.4717 41.8138 53.4717 40.145C53.4717 38.4762 52.1188 37.1233 50.45 37.1233H40.5833V27.8117C40.5833 26.0747 39.1753 24.6667 37.4383 24.6667C35.7014 24.6667 34.2933 26.0747 34.2933 27.8117V37.1233H25.105C23.4362 37.1233 22.0833 38.4762 22.0833 40.145Z" fill="white"/>
</svg>
