<svg width="24" height="24" viewBox="0 0 24 24" fill="none" xmlns="http://www.w3.org/2000/svg">
<path d="M17.4138 10.5861L9.41384 2.58608C9.03663 2.22177 8.53143 2.02018 8.00704 2.02473C7.48264 2.02929 6.98102 2.23963 6.6102 2.61044C6.23938 2.98126 6.02905 3.48289 6.02449 4.00728C6.01993 4.53167 6.22152 5.03688 6.58584 5.41408L13.1718 12.0001L6.58584 18.5861C6.22152 18.9633 6.01993 19.4685 6.02449 19.9929C6.02905 20.5173 6.23938 21.0189 6.6102 21.3897C6.98102 21.7605 7.48264 21.9709 8.00704 21.9754C8.53143 21.98 9.03663 21.7784 9.41384 21.4141L17.4138 13.4141C17.7888 13.039 17.9994 12.5304 17.9994 12.0001C17.9994 11.4698 17.7888 10.9611 17.4138 10.5861Z" fill="white"/>
</svg>
