<svg width="84" height="84" viewBox="0 0 84 84" fill="none" xmlns="http://www.w3.org/2000/svg">
<path d="M15.9642 73.1488C15.9642 73.1488 10.7656 73.1488 10.7656 67.9502C10.7656 62.7516 15.9642 47.1558 41.9572 47.1558C67.9502 47.1558 73.1488 62.7516 73.1488 67.9502C73.1488 73.1488 67.9502 73.1488 67.9502 73.1488H15.9642ZM41.9572 41.9572C46.0935 41.9572 50.0603 40.3141 52.9851 37.3893C55.9099 34.4645 57.553 30.4977 57.553 26.3614C57.553 22.2252 55.9099 18.2583 52.9851 15.3335C50.0603 12.4087 46.0935 10.7656 41.9572 10.7656C37.821 10.7656 33.8541 12.4087 30.9293 15.3335C28.0046 18.2583 26.3614 22.2252 26.3614 26.3614C26.3614 30.4977 28.0046 34.4645 30.9293 37.3893C33.8541 40.3141 37.821 41.9572 41.9572 41.9572Z" fill="white"/>
</svg>
