<svg width="24" height="24" viewBox="0 0 24 24" fill="none" xmlns="http://www.w3.org/2000/svg">
<path fill-rule="evenodd" clip-rule="evenodd" d="M5.81282 18.1872C7.45376 19.8281 9.67936 20.75 12 20.75C14.3206 20.75 16.5462 19.8281 18.1872 18.1872C19.8281 16.5462 20.75 14.3206 20.75 12C20.75 9.67936 19.8281 7.45376 18.1872 5.81282C16.5462 4.17187 14.3206 3.25 12 3.25C9.67936 3.25 7.45376 4.17187 5.81282 5.81282C4.17187 7.45376 3.25 9.67936 3.25 12C3.25 14.3206 4.17187 16.5462 5.81282 18.1872ZM19.0711 19.0711C17.1957 20.9464 14.6522 22 12 22C9.34784 22 6.8043 20.9464 4.92893 19.0711C3.05357 17.1957 2 14.6522 2 12C2 9.34784 3.05357 6.8043 4.92893 4.92893C6.8043 3.05357 9.34784 2 12 2C14.6522 2 17.1957 3.05357 19.0711 4.92893C20.9464 6.8043 22 9.34784 22 12C22 14.6522 20.9464 17.1957 19.0711 19.0711ZM8.58802 9.3509C8.57359 9.31316 8.56702 9.27287 8.56873 9.2325C8.68748 7.1125 10.4225 6.375 12.0062 6.375C13.7525 6.375 15.3475 7.2875 15.3475 9.17625C15.3475 10.525 14.5537 11.1675 13.7925 11.7463C12.8712 12.445 12.53 12.7063 12.53 13.6038V13.735C12.53 13.8179 12.4971 13.8974 12.4385 13.956C12.3798 14.0146 12.3004 14.0475 12.2175 14.0475H11.2037C11.1217 14.0475 11.043 14.0153 10.9845 13.9577C10.926 13.9002 10.8925 13.822 10.8912 13.74L10.8875 13.4688C10.84 12.31 11.5062 11.5963 12.3475 10.985C13.0862 10.43 13.5537 10.065 13.5537 9.27125C13.5537 8.24 12.7687 7.81125 11.9112 7.81125C10.9087 7.81125 10.3462 8.40875 10.2337 9.22875C10.2112 9.4 10.0737 9.54125 9.90123 9.54125H8.86998C8.82959 9.54197 8.78947 9.53442 8.7521 9.51906C8.71473 9.5037 8.68089 9.48085 8.65268 9.45194C8.62446 9.42302 8.60246 9.38863 8.58802 9.3509ZM11.7775 17.595C11.0462 17.595 10.515 17.1025 10.515 16.4362C10.515 15.7463 11.0462 15.2613 11.7762 15.2613C12.5375 15.2613 13.0625 15.7463 13.0625 16.4362C13.0625 17.1025 12.5387 17.595 11.7775 17.595Z" fill="white"/>
</svg>
