<svg width="56" height="57" viewBox="0 0 56 57" fill="none" xmlns="http://www.w3.org/2000/svg">
<g clip-path="url(#clip0_697_17785)">
<path d="M47.3303 56.4995H34.9126C34.0065 56.4995 33.272 55.765 33.272 54.8589V26.7422C33.272 25.8361 34.0065 25.1016 34.9126 25.1016H50.8448C51.0774 25.1016 51.3074 25.1511 51.5195 25.2467C51.7315 25.3424 51.9208 25.4821 52.0747 25.6565C52.2287 25.8309 52.3438 26.036 52.4124 26.2583C52.481 26.4806 52.5016 26.7149 52.4728 26.9457L48.9582 55.0623C48.8557 55.8834 48.1577 56.4995 47.3303 56.4995Z" fill="#C1126B"/>
<path d="M21.0875 56.4996H8.66984C8.26995 56.4996 7.88384 56.3536 7.58406 56.0889C7.28428 55.8243 7.09149 55.4592 7.0419 55.0624L3.52735 26.9457C3.49846 26.7149 3.51899 26.4805 3.58759 26.2582C3.65619 26.0359 3.7713 25.8308 3.92526 25.6564C4.07922 25.482 4.26852 25.3423 4.48059 25.2466C4.69266 25.151 4.92265 25.1015 5.15529 25.1016H21.0875C21.9936 25.1016 22.7281 25.8361 22.7281 26.7422V54.859C22.7281 55.7651 21.9936 56.4996 21.0875 56.4996Z" fill="#E20059"/>
<path d="M34.9124 56.4995H21.0874V28.3828C21.0874 27.4767 21.822 26.7422 22.728 26.7422H33.2718C34.1778 26.7422 34.9124 27.4767 34.9124 28.3828V56.4995Z" fill="#FFB543"/>
<path d="M33.2719 26.7422H28V56.4995H34.9125V28.3828C34.9125 27.4767 34.1779 26.7422 33.2719 26.7422Z" fill="#FF9743"/>
<path d="M31.5144 17.8397C30.6083 17.8397 29.8738 17.1051 29.8738 16.199C29.8738 15.293 30.6083 14.5584 31.5144 14.5584C38.5856 14.5584 42.2735 10.5953 42.2735 7.15252C42.2735 5.04158 40.8792 3.78125 38.5435 3.78125C34.2914 3.78125 30.8144 11.7509 29.5911 16.5977C29.5021 16.9523 29.2971 17.267 29.0089 17.492C28.7206 17.7169 28.3655 17.8391 27.9998 17.8392H27.999C27.6333 17.8391 27.2781 17.7168 26.9898 17.4917C26.7016 17.2667 26.4968 16.9517 26.4081 16.5969C25.6939 13.7622 22.32 3.78125 17.4561 3.78125C15.1205 3.78125 13.7261 5.04147 13.7261 7.15252C13.7261 10.5913 17.4039 14.5584 24.4852 14.5584C25.3912 14.5584 26.1258 15.293 26.1258 16.199C26.1258 17.1051 25.3912 17.8397 24.4852 17.8397C14.5282 17.8397 10.4448 11.5187 10.4448 7.15252C10.4449 3.76791 12.7688 0.5 17.4561 0.5C20.7619 0.5 24.7029 2.86928 27.9998 11.0392C31.2995 2.86283 35.2423 0.5 38.5436 0.5C43.2239 0.5 45.5549 3.75883 45.5549 7.15252C45.5547 11.4965 41.4818 17.8397 31.5144 17.8397Z" fill="#FFB543"/>
<path d="M27.9998 11.0392C31.2994 2.86283 35.2423 0.5 38.5435 0.5C43.2238 0.5 45.5548 3.75883 45.5548 7.15252C45.5548 11.4965 41.4819 17.8397 31.5144 17.8397C30.6084 17.8397 29.8738 17.1051 29.8738 16.199C29.8738 15.293 30.6084 14.5584 31.5144 14.5584C38.5856 14.5584 42.2736 10.5953 42.2736 7.15252C42.2736 5.04158 40.8792 3.78125 38.5435 3.78125C34.2915 3.78125 30.8144 11.7509 29.5912 16.5977C29.5021 16.9523 29.2972 17.267 29.0089 17.492C28.7206 17.7169 28.3655 17.8391 27.9999 17.8392H27.999L27.9998 11.0392Z" fill="#FF9743"/>
<path d="M21.0875 28.3837H2.95861C2.55873 28.3837 2.17261 28.2376 1.87284 27.973C1.57306 27.7083 1.38026 27.3433 1.33067 26.9465L0.0127049 16.4028C-0.0161934 16.1719 0.0043402 15.9376 0.0729426 15.7153C0.141545 15.493 0.256647 15.2878 0.410608 15.1134C0.564569 14.939 0.753868 14.7993 0.965938 14.7037C1.17801 14.608 1.408 14.5586 1.64064 14.5586H21.0875C21.9936 14.5586 22.7281 15.2932 22.7281 16.1992V26.743C22.7281 27.6491 21.9936 28.3837 21.0875 28.3837Z" fill="#FF405C"/>
<path d="M53.0415 28.3836H34.9126C34.0065 28.3836 33.272 27.649 33.272 26.743V16.1992C33.272 15.2932 34.0065 14.5586 34.9126 14.5586H54.3595C54.5921 14.5586 54.8221 14.6081 55.0341 14.7038C55.2462 14.7994 55.4354 14.9391 55.5894 15.1135C55.7433 15.2879 55.8584 15.4931 55.9271 15.7153C55.9957 15.9376 56.0163 16.1719 55.9874 16.4028L54.6694 26.9465C54.567 27.7675 53.8689 28.3836 53.0415 28.3836Z" fill="#E20059"/>
<path d="M21.0874 14.5586H34.9124V28.3836H21.0874V14.5586Z" fill="#FFDB5C"/>
<path d="M28 14.5586H34.9125V28.3836H28V14.5586Z" fill="#FFB543"/>
</g>
<defs>
<clipPath id="clip0_697_17785">
<rect width="56" height="56" fill="white" transform="translate(0 0.5)"/>
</clipPath>
</defs>
</svg>
