<svg width="24" height="24" viewBox="0 0 24 24" fill="none" xmlns="http://www.w3.org/2000/svg">
<path d="M23.272 5.9421L18.5578 1.22787C18.4844 1.15505 18.3973 1.09744 18.3016 1.05834C18.2059 1.01923 18.1034 0.999415 17.9999 1.00001H8.57147C7.94633 1.00001 7.34678 1.24835 6.90474 1.6904C6.46269 2.13244 6.21436 2.73198 6.21436 3.35713V4.92854C6.21436 5.13693 6.29714 5.33677 6.44448 5.48412C6.59183 5.63147 6.79168 5.71425 7.00006 5.71425C7.20844 5.71425 7.40829 5.63147 7.55564 5.48412C7.70299 5.33677 7.78577 5.13693 7.78577 4.92854V3.35713C7.78577 3.14875 7.86855 2.9489 8.0159 2.80155C8.16324 2.6542 8.36309 2.57143 8.57147 2.57143H17.2142V4.92854C17.2142 5.55369 17.4626 6.15323 17.9046 6.59528C18.3467 7.03732 18.9462 7.28566 19.5714 7.28566H21.9285V20.6427C21.9285 20.851 21.8457 21.0509 21.6983 21.1982C21.551 21.3456 21.3512 21.4284 21.1428 21.4284H11.7143C11.5059 21.4284 11.3061 21.5112 11.1587 21.6585C11.0114 21.8058 10.9286 22.0057 10.9286 22.2141C10.9286 22.4225 11.0114 22.6223 11.1587 22.7697C11.3061 22.917 11.5059 22.9998 11.7143 22.9998H21.1428C21.7679 22.9998 22.3675 22.7514 22.8095 22.3094C23.2516 21.8674 23.4999 21.2678 23.4999 20.6427V6.49996C23.5005 6.39655 23.4807 6.29405 23.4416 6.19832C23.4025 6.10259 23.3449 6.01552 23.272 5.9421ZM18.7857 4.92854V3.67927L20.8206 5.71425H19.5714C19.363 5.71425 19.1631 5.63147 19.0158 5.48412C18.8684 5.33677 18.7857 5.13693 18.7857 4.92854Z" fill="white"/>
<path d="M10.9285 12.0005C10.9301 11.2137 10.7347 10.4391 10.3602 9.74714C9.98576 9.05521 9.44406 8.468 8.78452 8.03904C8.12497 7.61008 7.36856 7.35302 6.58422 7.29127C5.79988 7.22952 5.01256 7.36506 4.29401 7.68553C3.57547 8.006 2.94856 8.50121 2.47043 9.12602C1.99229 9.75083 1.67814 10.4854 1.55659 11.2627C1.43505 12.04 1.50999 12.8354 1.77458 13.5763C2.03916 14.3173 2.48498 14.9802 3.0714 15.5047V22.2147C3.07218 22.3698 3.11885 22.5212 3.20554 22.6498C3.29223 22.7785 3.41506 22.8786 3.55854 22.9375C3.70163 22.9977 3.85933 23.0141 4.01175 22.9848C4.16417 22.9554 4.30447 22.8815 4.41496 22.7725L6.21423 20.9654L8.01349 22.7725C8.08691 22.8453 8.17398 22.903 8.26971 22.9421C8.36544 22.9812 8.46794 23.001 8.57135 23.0004C8.67441 23.003 8.77667 22.9815 8.86991 22.9375C9.0134 22.8786 9.13623 22.7785 9.22291 22.6498C9.3096 22.5212 9.35628 22.3698 9.35705 22.2147V15.5047C9.85023 15.0636 10.245 14.5236 10.5158 13.9199C10.7865 13.3161 10.9271 12.6622 10.9285 12.0005ZM7.78564 20.3211L6.77208 19.2997C6.69904 19.2261 6.61214 19.1676 6.51639 19.1277C6.42065 19.0878 6.31795 19.0673 6.21423 19.0673C6.11051 19.0673 6.00781 19.0878 5.91206 19.1277C5.81632 19.1676 5.72942 19.2261 5.65638 19.2997L4.64282 20.3211V16.4397C5.65835 16.8063 6.77011 16.8063 7.78564 16.4397V20.3211ZM6.21423 15.1433C5.59264 15.1433 4.985 14.959 4.46817 14.6137C3.95133 14.2683 3.54851 13.7775 3.31064 13.2032C3.07276 12.6289 3.01053 11.997 3.13179 11.3874C3.25306 10.7777 3.55238 10.2177 3.99191 9.77818C4.43145 9.33865 4.99145 9.03932 5.60109 8.91806C6.21074 8.79679 6.84266 8.85903 7.41693 9.0969C7.99121 9.33477 8.48205 9.7376 8.82739 10.2544C9.17273 10.7713 9.35705 11.3789 9.35705 12.0005C9.35705 12.834 9.02593 13.6334 8.43654 14.2228C7.84715 14.8122 7.04776 15.1433 6.21423 15.1433ZM14.857 5.71484H10.9285C10.7201 5.71484 10.5202 5.79762 10.3729 5.94497C10.2255 6.09232 10.1428 6.29217 10.1428 6.50055C10.1428 6.70893 10.2255 6.90878 10.3729 7.05613C10.5202 7.20348 10.7201 7.28626 10.9285 7.28626H14.857C15.0654 7.28626 15.2652 7.20348 15.4126 7.05613C15.5599 6.90878 15.6427 6.70893 15.6427 6.50055C15.6427 6.29217 15.5599 6.09232 15.4126 5.94497C15.2652 5.79762 15.0654 5.71484 14.857 5.71484ZM19.5712 9.64337H13.2856C13.0772 9.64337 12.8774 9.72615 12.73 9.8735C12.5827 10.0208 12.4999 10.2207 12.4999 10.4291C12.4999 10.6375 12.5827 10.8373 12.73 10.9847C12.8774 11.132 13.0772 11.2148 13.2856 11.2148H19.5712C19.7796 11.2148 19.9795 11.132 20.1268 10.9847C20.2742 10.8373 20.3569 10.6375 20.3569 10.4291C20.3569 10.2207 20.2742 10.0208 20.1268 9.8735C19.9795 9.72615 19.7796 9.64337 19.5712 9.64337ZM19.5712 13.5719H13.2856C13.0772 13.5719 12.8774 13.6547 12.73 13.802C12.5827 13.9494 12.4999 14.1492 12.4999 14.3576C12.4999 14.566 12.5827 14.7658 12.73 14.9132C12.8774 15.0605 13.0772 15.1433 13.2856 15.1433H19.5712C19.7796 15.1433 19.9795 15.0605 20.1268 14.9132C20.2742 14.7658 20.3569 14.566 20.3569 14.3576C20.3569 14.1492 20.2742 13.9494 20.1268 13.802C19.9795 13.6547 19.7796 13.5719 19.5712 13.5719ZM19.5712 17.5004H11.7142C11.5058 17.5004 11.3059 17.5832 11.1586 17.7306C11.0112 17.8779 10.9285 18.0778 10.9285 18.2861C10.9285 18.4945 11.0112 18.6944 11.1586 18.8417C11.3059 18.9891 11.5058 19.0718 11.7142 19.0718H19.5712C19.7796 19.0718 19.9795 18.9891 20.1268 18.8417C20.2742 18.6944 20.3569 18.4945 20.3569 18.2861C20.3569 18.0778 20.2742 17.8779 20.1268 17.7306C19.9795 17.5832 19.7796 17.5004 19.5712 17.5004Z" fill="white"/>
</svg>
