<svg width="20" height="20" viewBox="0 0 20 20" fill="none" xmlns="http://www.w3.org/2000/svg">
<path d="M13.879 3.90382V2.79275C13.879 2.27273 13.6728 1.77402 13.3058 1.40631C12.9389 1.03861 12.4411 0.832031 11.9222 0.832031H10.6176C10.0987 0.832031 9.60093 1.03861 9.23396 1.40631C8.86699 1.77402 8.66082 2.27273 8.66082 2.79275V3.90382C7.03868 4.47549 5.64956 5.5665 4.70807 7.00829C4.66096 7.08038 4.62848 7.16107 4.61249 7.24574C4.5965 7.33041 4.59731 7.41741 4.61488 7.50177C4.65035 7.67214 4.75192 7.82142 4.89723 7.91675C5.04255 8.01209 5.2197 8.04568 5.38973 8.01013C5.55977 7.97459 5.70874 7.87282 5.80389 7.72722C6.48514 6.67769 7.4529 5.84632 8.59207 5.33197C9.73124 4.81761 10.9939 4.64194 12.2298 4.82582C13.4658 5.00971 14.623 5.54542 15.5638 6.36925C16.5047 7.19308 17.1896 8.27035 17.5371 9.47293C17.8846 10.6755 17.8801 11.9528 17.5241 13.1529C17.1681 14.353 16.4755 15.4253 15.5289 16.2425C14.5822 17.0596 13.4212 17.5871 12.184 17.7621C10.9468 17.9372 9.68544 17.7526 8.54994 17.2302C8.39252 17.1582 8.21302 17.1519 8.05094 17.2126C7.88886 17.2732 7.75747 17.3959 7.68568 17.5537C7.61389 17.7114 7.60758 17.8913 7.66813 18.0537C7.72868 18.2161 7.85113 18.3477 8.00856 18.4197C8.97126 18.8733 10.0162 19.1256 11.0794 19.161C12.1427 19.1965 13.202 19.0144 14.1927 18.6258C15.1834 18.2373 16.0846 17.6504 16.8413 16.9012C17.5981 16.1519 18.1944 15.2559 18.594 14.268C18.9935 13.28 19.1879 12.2208 19.1652 11.1551C19.1424 10.0893 18.9031 9.0394 18.4619 8.06944C18.0206 7.09947 17.3866 6.22982 16.5987 5.51361C15.8107 4.79739 14.8853 4.24964 13.879 3.90382ZM9.96536 3.5705V2.79275C9.96536 2.61941 10.0341 2.45317 10.1564 2.3306C10.2787 2.20803 10.4446 2.13918 10.6176 2.13918H11.9222C12.0952 2.13918 12.2611 2.20803 12.3834 2.3306C12.5057 2.45317 12.5744 2.61941 12.5744 2.79275V3.56396C12.1436 3.4883 11.7073 3.44894 11.2699 3.44632C10.8324 3.45141 10.396 3.49294 9.96536 3.5705Z" fill="white" fill-opacity="0.7"/>
<path d="M15.0399 8.26849C14.9323 8.13382 14.7759 8.04726 14.6048 8.02767C14.4338 8.00808 14.2619 8.05706 14.1267 8.16392L12.2939 9.62792C11.9885 9.43097 11.6329 9.32657 11.2698 9.32728C10.8828 9.32728 10.5045 9.44227 10.1827 9.65772C9.86086 9.87316 9.61005 10.1794 9.46195 10.5377C9.31384 10.8959 9.27509 11.2902 9.35059 11.6705C9.4261 12.0509 9.61246 12.4002 9.88613 12.6744C10.1598 12.9486 10.5085 13.1354 10.888 13.211C11.2676 13.2867 11.6611 13.2479 12.0186 13.0995C12.3762 12.9511 12.6818 12.6997 12.8968 12.3773C13.1118 12.0549 13.2266 11.6758 13.2266 11.288C13.2258 11.0649 13.186 10.8438 13.1092 10.6344L14.9356 9.17042C15.0662 9.06294 15.1501 8.90883 15.1696 8.74058C15.189 8.57233 15.1425 8.40308 15.0399 8.26849ZM11.2698 11.9416C11.1408 11.9416 11.0147 11.9032 10.9074 11.8314C10.8002 11.7596 10.7166 11.6575 10.6672 11.5381C10.6178 11.4187 10.6049 11.2873 10.6301 11.1605C10.6552 11.0337 10.7174 10.9173 10.8086 10.8258C10.8998 10.7344 11.016 10.6722 11.1425 10.647C11.2691 10.6218 11.4002 10.6347 11.5194 10.6842C11.6386 10.7336 11.7405 10.8174 11.8121 10.9249C11.8838 11.0324 11.9221 11.1587 11.9221 11.288C11.9221 11.4613 11.8533 11.6276 11.731 11.7501C11.6087 11.8727 11.4428 11.9416 11.2698 11.9416ZM6.70392 9.32728H2.7903C2.61731 9.32728 2.4514 9.39614 2.32908 9.51871C2.20676 9.64127 2.13803 9.80751 2.13803 9.98085C2.13803 10.1542 2.20676 10.3204 2.32908 10.443C2.4514 10.5656 2.61731 10.6344 2.7903 10.6344H6.70392C6.87691 10.6344 7.04282 10.5656 7.16514 10.443C7.28747 10.3204 7.35619 10.1542 7.35619 9.98085C7.35619 9.80751 7.28747 9.64127 7.16514 9.51871C7.04282 9.39614 6.87691 9.32728 6.70392 9.32728ZM6.70392 11.9416H1.48577C1.31277 11.9416 1.14687 12.0104 1.02454 12.133C0.902217 12.2556 0.833496 12.4218 0.833496 12.5951C0.833496 12.7685 0.902217 12.9347 1.02454 13.0573C1.14687 13.1799 1.31277 13.2487 1.48577 13.2487H6.70392C6.87691 13.2487 7.04282 13.1799 7.16514 13.0573C7.28747 12.9347 7.35619 12.7685 7.35619 12.5951C7.35619 12.4218 7.28747 12.2556 7.16514 12.133C7.04282 12.0104 6.87691 11.9416 6.70392 11.9416ZM6.70392 14.5559H2.7903C2.61731 14.5559 2.4514 14.6247 2.32908 14.7473C2.20676 14.8698 2.13803 15.0361 2.13803 15.2094C2.13803 15.3828 2.20676 15.549 2.32908 15.6716C2.4514 15.7941 2.61731 15.863 2.7903 15.863H6.70392C6.87691 15.863 7.04282 15.7941 7.16514 15.6716C7.28747 15.549 7.35619 15.3828 7.35619 15.2094C7.35619 15.0361 7.28747 14.8698 7.16514 14.7473C7.04282 14.6247 6.87691 14.5559 6.70392 14.5559Z" fill="white" fill-opacity="0.7"/>
</svg>
