<svg width="24" height="24" viewBox="0 0 24 24" fill="none" xmlns="http://www.w3.org/2000/svg">
<path fill-rule="evenodd" clip-rule="evenodd" d="M1.25757 4.98861C0.914139 5.33204 0.914148 5.88885 1.25757 6.23228C1.601 6.57571 2.15781 6.57572 2.50124 6.23229L6.23229 2.50124C6.57571 2.15782 6.57571 1.601 6.23228 1.25757C5.88885 0.914148 5.33204 0.914139 4.98861 1.25757L1.25757 4.98861ZM18.3307 1.25853C17.9873 0.9151 17.4305 0.915109 17.0871 1.25854C16.7436 1.60196 16.7436 2.15878 17.0871 2.5022L20.8181 6.23325C21.1615 6.57668 21.7183 6.57667 22.0618 6.23324C22.4052 5.88981 22.4052 5.333 22.0618 4.98957L18.3307 1.25853ZM20.4633 12.947C20.4633 17.8087 16.5221 21.7499 11.6604 21.7499C6.79863 21.7499 2.85742 17.8087 2.85742 12.947C2.85742 8.08525 6.79863 4.14404 11.6604 4.14404C16.5221 4.14404 20.4633 8.08525 20.4633 12.947ZM22.2133 12.947C22.2133 18.7752 17.4886 23.4999 11.6604 23.4999C5.83213 23.4999 1.10742 18.7752 1.10742 12.947C1.10742 7.11876 5.83213 2.39404 11.6604 2.39404C17.4886 2.39404 22.2133 7.11876 22.2133 12.947ZM7.59919 12.0218C7.97373 11.7126 8.52802 11.7655 8.83723 12.1401L10.7601 14.4691L13.8823 8.87339C14.1189 8.44926 14.6546 8.29727 15.0787 8.53392C15.5029 8.77056 15.6548 9.30623 15.4182 9.73036L11.7406 16.3216C11.504 16.7457 10.9683 16.8977 10.5442 16.661C10.3756 16.567 10.2501 16.4258 10.1748 16.2631C10.0026 16.2179 9.84247 16.1202 9.72049 15.9724L7.48093 13.2598C7.17171 12.8853 7.22466 12.331 7.59919 12.0218Z" fill="white"/>
</svg>
