<svg width="24" height="24" viewBox="0 0 24 24" fill="none" xmlns="http://www.w3.org/2000/svg">
<path d="M14.0184 20.5714H7.35963C6.2476 20.5714 5.34385 19.61 5.34385 18.4286V5.57143C5.34385 4.39 6.2476 3.42857 7.35963 3.42857H16.7666C17.878 3.42857 18.7824 4.39 18.7824 5.57143V15.7857C18.7824 15.9764 18.855 16.1479 18.9692 16.2757C19.0314 16.3463 19.1065 16.4026 19.1899 16.4412C19.2734 16.4798 19.3633 16.4998 19.4543 16.5C19.6325 16.5 19.8034 16.4247 19.9294 16.2908C20.0555 16.1568 20.1262 15.9752 20.1262 15.7857V5.57143C20.1262 3.60214 18.6184 2 16.7666 2H7.35963C5.50713 2 4 3.60214 4 5.57143V18.4286C4 20.3979 5.50713 22 7.35963 22H14.0184C14.1966 22 14.3675 21.9247 14.4936 21.7908C14.6196 21.6568 14.6904 21.4752 14.6904 21.2857C14.6896 21.1024 14.6222 20.9266 14.5022 20.795C14.4401 20.7247 14.3652 20.6686 14.282 20.6302C14.1988 20.5917 14.1091 20.5717 14.0184 20.5714Z" fill="white"/>
<path d="M16.0949 11.2863H8.03179C7.85358 11.2863 7.68268 11.3615 7.55667 11.4955C7.43066 11.6294 7.35986 11.8111 7.35986 12.0006C7.35986 12.19 7.43066 12.3717 7.55667 12.5056C7.68268 12.6396 7.85358 12.7148 8.03179 12.7148H16.0949C16.2731 12.7148 16.444 12.6396 16.57 12.5056C16.696 12.3717 16.7668 12.19 16.7668 12.0006C16.7668 11.8111 16.696 11.6294 16.57 11.4955C16.444 11.3615 16.2731 11.2863 16.0949 11.2863ZM16.0949 7.71484H8.03179C7.85358 7.71484 7.68268 7.7901 7.55667 7.92405C7.43066 8.05801 7.35986 8.23969 7.35986 8.42913C7.35986 8.61857 7.43066 8.80025 7.55667 8.93421C7.68268 9.06816 7.85358 9.14342 8.03179 9.14342H16.0949C16.2731 9.14342 16.444 9.06816 16.57 8.93421C16.696 8.80025 16.7668 8.61857 16.7668 8.42913C16.7668 8.23969 16.696 8.05801 16.57 7.92405C16.444 7.7901 16.2731 7.71484 16.0949 7.71484ZM16.0949 14.8577H8.03179C7.85358 14.8577 7.68268 14.933 7.55667 15.0669C7.43066 15.2009 7.35986 15.3825 7.35986 15.572C7.35986 15.7614 7.43066 15.9431 7.55667 16.0771C7.68268 16.211 7.85358 16.2863 8.03179 16.2863H16.0949C16.2731 16.2863 16.444 16.211 16.57 16.0771C16.696 15.9431 16.7668 15.7614 16.7668 15.572C16.7668 15.3825 16.696 15.2009 16.57 15.0669C16.444 14.933 16.2731 14.8577 16.0949 14.8577ZM15.7583 19.1777C15.6924 19.2484 15.6413 19.3331 15.6084 19.4263C15.5755 19.5195 15.5615 19.6191 15.5674 19.7184C15.5737 19.8947 15.6418 20.0621 15.7583 20.1877L17.1196 21.6341C17.1819 21.7007 17.2559 21.7535 17.3374 21.7896C17.4189 21.8256 17.5064 21.8442 17.5947 21.8442C17.6829 21.8442 17.7704 21.8256 17.8519 21.7896C17.9334 21.7535 18.0074 21.7007 18.0697 21.6341L20.4618 19.0913C20.5259 19.0254 20.5771 18.9466 20.6123 18.8594C20.6476 18.7723 20.6661 18.6785 20.6669 18.5837C20.6676 18.4889 20.6506 18.3948 20.6169 18.307C20.5831 18.2192 20.5332 18.1395 20.4701 18.0724C20.407 18.0054 20.332 17.9523 20.2494 17.9164C20.1668 17.8805 20.0783 17.8624 19.9891 17.8632C19.8999 17.8641 19.8117 17.8838 19.7298 17.9212C19.6478 17.9586 19.5736 18.0131 19.5117 18.0813L17.5947 20.1191L16.7077 19.1777C16.5965 19.063 16.451 18.9935 16.2965 18.9813C16.1987 18.9693 16.0996 18.9807 16.0065 19.0147C15.9133 19.0487 15.8285 19.1044 15.7583 19.1777Z" fill="white"/>
</svg>
