<svg width="25" height="24" viewBox="0 0 25 24" fill="none" xmlns="http://www.w3.org/2000/svg">
<mask id="mask0_722_22711" style="mask-type:luminance" maskUnits="userSpaceOnUse" x="2" y="5" width="13" height="16">
<path fill-rule="evenodd" clip-rule="evenodd" d="M2.5 5H14.52V20.5019H2.5V5Z" fill="white"/>
</mask>
<g mask="url(#mask0_722_22711)">
<path fill-rule="evenodd" clip-rule="evenodd" d="M11.708 6.50637C10.84 6.50637 9.72998 7.38737 8.80598 8.12137C7.91698 8.82637 7.21498 9.38437 6.51498 9.43637C6.20498 9.45837 5.93898 9.46837 5.70498 9.47637C4.95798 9.50137 4.76898 9.51837 4.43198 9.79637C3.98998 10.1594 3.99698 11.6424 4.00098 12.5274L4.00198 12.7484V12.7524L4.00098 12.9734C3.99698 13.8594 3.98998 15.3424 4.43198 15.7054C4.76798 15.9834 4.95698 15.9994 5.70198 16.0264C5.93698 16.0334 6.20398 16.0434 6.51498 16.0664C7.21498 16.1174 7.91698 16.6754 8.80598 17.3804C9.90898 18.2554 11.275 19.3404 12.181 18.8894C12.939 18.2324 13.02 16.4904 13.02 12.7504C13.02 9.01037 12.939 7.26937 12.181 6.61137C12.034 6.53837 11.875 6.50637 11.708 6.50637ZM11.718 20.5024C10.327 20.5024 8.94798 19.4074 7.87398 18.5554C7.38898 18.1704 6.65598 17.5884 6.40298 17.5624C6.11598 17.5404 5.86798 17.5314 5.64898 17.5254C4.85098 17.4964 4.21998 17.4754 3.47798 16.8634C2.48598 16.0464 2.49498 14.3384 2.50098 12.9664L2.50198 12.7504L2.50098 12.5344C2.49498 11.1624 2.48598 9.45537 3.47798 8.63837C4.22098 8.02637 4.85298 8.00437 5.65298 7.97737C5.87098 7.96937 6.11798 7.96137 6.40498 7.94037C6.65598 7.91337 7.38898 7.33137 7.87398 6.94637C9.27298 5.83537 11.189 4.31837 12.974 5.33537C13.005 5.35437 13.036 5.37437 13.064 5.39737C14.458 6.49237 14.52 8.55737 14.52 12.7504C14.52 16.9444 14.458 19.0094 13.064 20.1054C13.036 20.1274 13.005 20.1484 12.973 20.1664C12.559 20.4024 12.138 20.5024 11.718 20.5024Z" fill="white"/>
</g>
<mask id="mask1_722_22711" style="mask-type:luminance" maskUnits="userSpaceOnUse" x="19" y="5" width="4" height="15">
<path fill-rule="evenodd" clip-rule="evenodd" d="M19.584 5.90234H22.9841V19.5947H19.584V5.90234Z" fill="white"/>
</mask>
<g mask="url(#mask1_722_22711)">
<path fill-rule="evenodd" clip-rule="evenodd" d="M20.3337 19.5947C20.1857 19.5947 20.0367 19.5507 19.9057 19.4597C19.5657 19.2237 19.4817 18.7567 19.7187 18.4157C22.1117 14.9757 22.1117 10.5267 19.7187 7.08066C19.4817 6.74066 19.5657 6.27366 19.9067 6.03666C20.2467 5.79966 20.7127 5.88466 20.9497 6.22566C23.6627 10.1297 23.6627 15.3727 20.9497 19.2737C20.8037 19.4827 20.5707 19.5947 20.3337 19.5947Z" fill="white"/>
</g>
<path fill-rule="evenodd" clip-rule="evenodd" d="M17.8306 17.1869C17.7036 17.1869 17.5756 17.1549 17.4576 17.0869C17.0986 16.8809 16.9746 16.4219 17.1806 16.0639C18.3516 14.0229 18.3516 11.4849 17.1806 9.43793C16.9746 9.07793 17.0996 8.61993 17.4586 8.41393C17.8186 8.21193 18.2756 8.33293 18.4816 8.69193C19.9166 11.1999 19.9166 14.3099 18.4816 16.8099C18.3426 17.0519 18.0906 17.1869 17.8306 17.1869Z" fill="white"/>
</svg>
