<svg width="28" height="28" viewBox="0 0 28 28" fill="none" xmlns="http://www.w3.org/2000/svg">
<path d="M14.3119 22.6319C15.1372 22.6319 15.8063 21.9719 15.8063 21.1577C15.8063 20.3436 15.1372 19.6836 14.3119 19.6836C13.4865 19.6836 12.8174 20.3436 12.8174 21.1577C12.8174 21.9719 13.4865 22.6319 14.3119 22.6319Z" fill="white"/>
<path d="M18.5393 18.655C18.7634 18.4338 18.8894 18.1339 18.8894 17.8212C18.8894 17.5085 18.7634 17.2085 18.5393 16.9874C17.4169 15.8835 15.8967 15.2637 14.3117 15.2637C12.7268 15.2637 11.2065 15.8835 10.0841 16.9874C9.86636 17.2098 9.74586 17.5077 9.74858 17.8169C9.7513 18.1261 9.87704 18.4219 10.0987 18.6406C10.3204 18.8592 10.6203 18.9833 10.9337 18.986C11.2472 18.9886 11.5492 18.8698 11.7747 18.655C12.4483 17.9927 13.3606 17.6208 14.3117 17.6208C15.2628 17.6208 16.1751 17.9927 16.8488 18.655C17.073 18.876 17.377 19.0002 17.694 19.0002C18.0111 19.0002 18.3151 18.876 18.5393 18.655Z" fill="white"/>
<path d="M6.70329 13.6517C6.4855 13.8742 6.365 14.1721 6.36772 14.4813C6.37045 14.7905 6.49618 15.0863 6.71785 15.3049C6.93952 15.5236 7.23939 15.6476 7.55287 15.6503C7.86635 15.653 8.16835 15.5341 8.39384 15.3193C9.17099 14.5526 10.0936 13.9445 11.1091 13.5296C12.1245 13.1147 13.2129 12.9011 14.312 12.9011C15.4111 12.9011 16.4994 13.1147 17.5149 13.5296C18.5303 13.9445 19.453 14.5526 20.2301 15.3193C20.4556 15.5341 20.7576 15.653 21.0711 15.6503C21.3846 15.6476 21.6844 15.5236 21.9061 15.3049C22.1278 15.0863 22.2535 14.7905 22.2562 14.4813C22.259 14.1721 22.1384 13.8742 21.9207 13.6517C20.9215 12.6661 19.7353 11.8843 18.4298 11.3509C17.1243 10.8175 15.725 10.543 14.312 10.543C12.8989 10.543 11.4997 10.8175 10.1942 11.3509C8.88868 11.8843 7.70247 12.6661 6.70329 13.6517Z" fill="white"/>
<path d="M3.32203 10.3176C3.20784 10.4264 3.11676 10.5565 3.0541 10.7004C2.99144 10.8443 2.95846 10.999 2.95708 11.1556C2.9557 11.3122 2.98595 11.4675 3.04606 11.6124C3.10618 11.7573 3.19495 11.889 3.30721 11.9997C3.41947 12.1105 3.55295 12.198 3.69989 12.2573C3.84682 12.3166 4.00425 12.3465 4.163 12.3451C4.32175 12.3438 4.47864 12.3112 4.6245 12.2494C4.77037 12.1876 4.90229 12.0978 5.01258 11.9851C7.4811 9.55648 10.8253 8.1926 14.3118 8.1926C17.7983 8.1926 21.1425 9.55648 23.6111 11.9851C23.7213 12.0978 23.8533 12.1876 23.9991 12.2494C24.145 12.3112 24.3019 12.3438 24.4606 12.3451C24.6194 12.3465 24.7768 12.3166 24.9237 12.2573C25.0707 12.198 25.2042 12.1105 25.3164 11.9997C25.4287 11.889 25.5175 11.7573 25.5776 11.6124C25.6377 11.4675 25.6679 11.3122 25.6666 11.1556C25.6652 10.999 25.6322 10.8443 25.5695 10.7004C25.5069 10.5565 25.4158 10.4264 25.3016 10.3176C22.3848 7.44646 18.4325 5.83398 14.3118 5.83398C10.1912 5.83398 6.2388 7.44646 3.32203 10.3176Z" fill="white"/>
</svg>
