<svg width="25" height="24" viewBox="0 0 25 24" fill="none" xmlns="http://www.w3.org/2000/svg">
<path fill-rule="evenodd" clip-rule="evenodd" d="M12 20C16.6944 20 20.5 16.1944 20.5 11.5C20.5 6.80558 16.6944 3 12 3C7.30558 3 3.5 6.80558 3.5 11.5C3.5 16.1944 7.30558 20 12 20ZM9.74165 14.925C9.61667 15.0583 9.44999 15.1333 9.26667 15.1333C8.89166 15.1333 8.6 14.825 8.6 14.4583C8.6 14.275 8.66667 14.1083 8.8 13.9917L11.1666 11.6167L8.8 9.24165C8.66667 9.11664 8.6 8.95831 8.6 8.77499C8.6 8.39998 8.89166 8.11664 9.26667 8.11664C9.44999 8.11664 9.6 8.17499 9.72498 8.30832L12.1083 10.6833L14.5 8.3C14.6416 8.15831 14.7917 8.1 14.9666 8.1C15.3333 8.1 15.6333 8.39166 15.6333 8.76663C15.6333 8.94999 15.5666 9.09164 15.4333 9.2333L13.0583 11.6167L15.425 13.9833C15.55 14.1083 15.625 14.2666 15.625 14.4583C15.625 14.825 15.325 15.1333 14.9583 15.1333C14.7666 15.1333 14.6 15.05 14.475 14.925L12.1083 12.55L9.74165 14.925Z" fill="white"/>
</svg>
