<svg width="20" height="20" viewBox="0 0 20 20" fill="none" xmlns="http://www.w3.org/2000/svg">
<path fill-rule="evenodd" clip-rule="evenodd" d="M15.1111 4.89011C15.9126 5.00188 16.653 5.36833 17.2356 5.95064C17.9435 6.65892 18.3332 7.59986 18.3334 8.60046V14.5875C18.3334 15.5883 17.9436 16.5292 17.2358 17.237C16.5279 17.9449 15.5869 18.3346 14.586 18.3346H8.59897C7.59795 18.3346 6.65702 17.9449 5.94932 17.237C5.36701 16.6549 5.00043 15.9143 4.8888 15.1125C4.087 15.0009 3.34644 14.6343 2.76413 14.0518C2.05644 13.3444 1.66669 12.4035 1.66669 11.4023V5.41524C1.66669 4.41435 2.05644 3.47327 2.76428 2.76557C3.47197 2.05772 4.4129 1.66797 5.41378 1.66797H11.4006C12.4014 1.66797 13.3423 2.05772 14.0504 2.76542C14.6327 3.34817 14.9993 4.08859 15.1111 4.89011ZM2.82494 5.41524V11.4023C2.82402 11.7424 2.89056 12.0793 3.0207 12.3935C3.15085 12.7078 3.34203 12.9931 3.58316 13.2329C4.07209 13.722 4.7223 13.9913 5.41378 13.9913H11.4008C11.7409 13.9922 12.0779 13.9256 12.3922 13.7955C12.7065 13.6653 12.9918 13.4741 13.2317 13.2329C13.7206 12.7439 13.9899 12.0936 13.9899 11.4023V5.41524C13.9908 5.07509 13.9242 4.73815 13.7941 4.4239C13.6639 4.10965 13.4727 3.82434 13.2315 3.58446C12.7425 3.09553 12.0921 2.82623 11.4008 2.82623H5.41378C5.07367 2.8253 4.73675 2.89184 4.42252 3.02199C4.1083 3.15214 3.82301 3.34332 3.58316 3.58446C3.09423 4.07353 2.82494 4.72361 2.82494 5.41524ZM16.4167 16.4181C16.9057 15.9291 17.175 15.2789 17.175 14.5875V8.6006C17.1758 8.26046 17.1093 7.92352 16.9791 7.60927C16.8489 7.29502 16.6577 7.0097 16.4166 6.76982C16.069 6.42144 15.6287 6.18014 15.148 6.07458V11.4024C15.148 12.4032 14.7583 13.3441 14.0504 14.052C13.3426 14.7598 12.4015 15.1496 11.4006 15.1496H6.07297C6.17858 15.6303 6.41993 16.0705 6.76835 16.4181C7.25728 16.9072 7.90749 17.1765 8.59897 17.1765H14.5858C14.926 17.1774 15.263 17.1109 15.5772 16.9807C15.8915 16.8505 16.1768 16.6593 16.4167 16.4181ZM7.82814 8.98784H6.00925C5.85566 8.98784 5.70836 8.92683 5.59975 8.81822C5.49114 8.70961 5.43013 8.56231 5.43013 8.40871C5.43013 8.25512 5.49114 8.10781 5.59975 7.99921C5.70836 7.8906 5.85566 7.82958 6.00925 7.82958H7.82814V6.01082C7.82814 5.85723 7.88916 5.70992 7.99776 5.60131C8.10637 5.49271 8.25367 5.43169 8.40727 5.43169C8.56086 5.43169 8.70816 5.49271 8.81677 5.60131C8.92538 5.70992 8.98639 5.85723 8.98639 6.01082V7.82958H10.8053C10.9589 7.82958 11.1062 7.8906 11.2148 7.99921C11.3234 8.10781 11.3844 8.25512 11.3844 8.40871C11.3844 8.56231 11.3234 8.70961 11.2148 8.81822C11.1062 8.92683 10.9589 8.98784 10.8053 8.98784H8.98639V10.8068C8.98639 10.9603 8.92538 11.1076 8.81677 11.2163C8.70816 11.3249 8.56086 11.3859 8.40727 11.3859C8.25367 11.3859 8.10637 11.3249 7.99776 11.2163C7.88916 11.1076 7.82814 10.9603 7.82814 10.8068V8.98784Z" fill="white" fill-opacity="0.7"/>
</svg>
