<svg width="116" height="12" viewBox="0 0 116 12" fill="none" xmlns="http://www.w3.org/2000/svg">
<path d="M52.2314 0.0507812H51.6622V11.0479H52.2314V0.0507812Z" fill="white"/>
<path d="M54.9007 0.611082V0.0410156L48.992 0.0410156V0.611082L54.9007 0.611082Z" fill="white"/>
<path d="M103.276 0.620844V0.0507812L97.3672 0.0507813V0.620844L103.276 0.620844Z" fill="white"/>
<path d="M97.3673 10.7578H97.9365V0.0405416H97.3673V10.7578Z" fill="white"/>
<path d="M103.276 5.55445V4.98438H98.4744V5.55445H103.276Z" fill="white"/>
<path d="M103.286 11.0603V10.4902H97.3778V11.0603H103.286Z" fill="white"/>
<path d="M88.5204 0.0527344H87.9512V11.0499H88.5204V0.0527344Z" fill="white"/>
<path d="M91.1797 0.622805V0.0527344L85.2711 0.0527344V0.622805L91.1797 0.622805Z" fill="white"/>
<path d="M18.6206 11.0489H18.0411L15.7542 2.23881L13.4673 11.0489H12.8878L15.4644 1.1194L15.7542 0L16.0439 1.1194L18.6206 11.0489Z" fill="white"/>
<path d="M28.1311 4.97452V11.0483H27.562V4.43555H27.862L28.1311 4.97452Z" fill="white"/>
<path d="M28.1308 4.97513L28.1411 4.9855L28.1308 5.00622L27.8514 5.5452L27.5616 4.99586V4.9855L24.985 0H25.5645L26.889 2.56012L27.8514 4.42579L27.8617 4.43616L28.1308 4.97513Z" fill="white"/>
<path d="M30.7073 0L28.4308 4.42579L28.1411 3.86609L30.1279 0H30.7073Z" fill="white"/>
<path d="M1.19511 0.0507812H0.625977V11.0479H1.19511V0.0507812Z" fill="white"/>
<path d="M5.82113 0.755592C5.38652 0.320268 4.78634 0.0507812 4.12407 0.0507812H1.7337V0.589758H4.12407C4.62077 0.589758 5.08643 0.78669 5.43826 1.13909C5.79009 1.4915 5.9867 1.95792 5.9867 2.45543V8.65362C5.9867 9.67974 5.14852 10.5193 4.12407 10.5193H1.7337V11.0583H4.12407C5.44861 11.0583 6.52479 9.98032 6.52479 8.65362V2.45543C6.52479 1.79208 6.25574 1.19092 5.82113 0.755592Z" fill="white"/>
<path d="M2.43715 10.5078H1.09192V11.0468H2.43715V10.5078Z" fill="white"/>
<path d="M65.0829 3.64843H64.5035L64.1309 2.23881L61.8544 11.0489H61.2749L63.8412 1.1194L64.1309 0L64.4207 1.1194L65.0829 3.64843Z" fill="white"/>
<path d="M66.9965 11.0489H66.417L64.5026 3.64844H65.0821L66.9965 11.0489Z" fill="white"/>
<path d="M79.094 2.47812V2.3952C79.0733 1.75257 78.8146 1.1825 78.3903 0.757545C77.9557 0.322221 77.3555 0.0527344 76.6932 0.0527344H73.1853V11.0499H73.7544V0.581344H76.6932C77.1899 0.581344 77.6556 0.778276 78.0074 1.13068C78.3489 1.47272 78.5352 1.91841 78.5559 2.3952V2.61286V3.15183C78.5559 4.17795 77.7177 5.0175 76.6932 5.0175H74.2925V5.55648H76.6932C76.8174 5.55648 76.9519 5.54611 77.0658 5.52538L78.4007 10.6975L78.4938 11.0602H79.0733L77.6453 5.53575L77.6039 5.38027C78.4731 5.0175 79.0836 4.15722 79.0836 3.16219V2.50921V2.48848L79.094 2.47812Z" fill="white"/>
<path d="M115.374 2.47812V2.3952C115.353 1.75257 115.095 1.1825 114.67 0.757545C114.236 0.322221 113.636 0.0527344 112.973 0.0527344H109.465V11.0499H110.034V0.581344H112.973C113.47 0.581344 113.936 0.778276 114.287 1.13068C114.629 1.47272 114.815 1.91841 114.836 2.3952V2.61286V3.15183C114.836 4.17795 113.998 5.0175 112.973 5.0175H110.573V5.55648H112.973C113.097 5.55648 113.232 5.54611 113.346 5.52538L114.681 10.6975L114.774 11.0602H115.353L113.925 5.53575L113.884 5.38027C114.753 5.0175 115.364 4.15722 115.364 3.16219V2.50921V2.48848L115.374 2.47812Z" fill="white"/>
<path d="M41.6965 0.0507812V0.589758H39.2958C39.182 0.589758 39.0681 0.600122 38.9543 0.620852C38.6956 0.672676 38.4576 0.765959 38.2507 0.911067C38.023 1.06654 37.8264 1.27384 37.6815 1.5226C37.5263 1.80245 37.4332 2.11339 37.4332 2.45543V4.43512H36.8951V2.45543C36.8951 1.75062 37.1952 1.11837 37.6815 0.672679C37.7022 0.65195 37.7229 0.631217 37.7436 0.620852C37.8988 0.486109 38.0644 0.38246 38.2507 0.289177C38.5611 0.133704 38.9233 0.0507812 39.2958 0.0507812H41.6965Z" fill="white"/>
<path d="M42.8035 7.37926V8.64377C42.8035 9.21384 42.6069 9.74245 42.2654 10.157C42.2654 10.1674 42.2447 10.1881 42.2344 10.1985C42.193 10.2503 42.1412 10.3021 42.0998 10.3436C41.6652 10.7789 41.0651 11.0484 40.4028 11.0484H36.7396V10.5094H40.4028C40.8995 10.5094 41.3651 10.3125 41.717 9.96011C41.986 9.69063 42.1619 9.35895 42.2344 8.98581C42.2551 8.8718 42.2654 8.75778 42.2654 8.64377V7.37926C42.2654 6.88174 42.0688 6.41533 41.717 6.06292C41.4479 5.79344 41.1168 5.61723 40.7443 5.54468C40.6304 5.52395 40.5166 5.51359 40.4028 5.51359H38.0021V4.97461H40.4028C40.9926 4.97461 41.5307 5.19227 41.955 5.54468C42.0067 5.58614 42.0585 5.63796 42.0998 5.67942C42.2654 5.84526 42.4103 6.03183 42.5138 6.23912C42.7 6.58116 42.7932 6.96467 42.7932 7.3689L42.8035 7.37926Z" fill="white"/>
<path d="M42.8034 0.0507812H41.2926V0.589758H42.8034V0.0507812Z" fill="white"/>
<path d="M38.4683 4.98438H36.9058V5.52334H38.4683V4.98438Z" fill="white"/>
</svg>
