<svg width="20" height="20" viewBox="0 0 20 20" fill="none" xmlns="http://www.w3.org/2000/svg">
<path fill-rule="evenodd" clip-rule="evenodd" d="M1.66868 10.4676C1.67546 10.5532 1.69938 10.6366 1.73888 10.7131C3.1205 13.6459 6.17375 15.6498 9.52469 15.8214C9.68267 15.8294 9.83995 15.8334 9.99689 15.8334C13.5294 15.8334 16.814 13.8102 18.2726 10.6895C18.3479 10.5281 18.3535 10.3447 18.2879 10.1794C18.2804 10.1603 18.2719 10.1416 18.2627 10.1235C16.8818 7.18885 13.8275 5.18349 10.4753 5.01187C6.76745 4.82385 3.25093 6.88473 1.72774 10.1437C1.6802 10.2453 1.6599 10.3566 1.66868 10.4676ZM10.4013 6.34367C13.1426 6.48367 15.648 8.07163 16.8703 10.4171C15.5162 13.0181 12.6345 14.6458 9.59864 14.4896C6.85741 14.3496 4.35196 12.7616 3.12965 10.4161C4.4838 7.81516 7.36682 6.18804 10.4013 6.34367ZM7.13793 10.4168C7.13793 11.9319 8.4219 13.1644 9.99996 13.1644C11.578 13.1644 12.862 11.9319 12.862 10.4168C12.862 8.90163 11.578 7.66917 9.99996 7.66917C8.4219 7.66917 7.13793 8.90163 7.13793 10.4168ZM8.52676 10.4168C8.52676 9.65004 9.20138 9.00264 9.99996 9.00264C10.7985 9.00264 11.4732 9.65004 11.4732 10.4168C11.4732 11.1835 10.7985 11.8309 9.99996 11.8309C9.20138 11.8309 8.52676 11.1835 8.52676 10.4168Z" fill="white" fill-opacity="0.7"/>
</svg>
