<svg width="24" height="24" viewBox="0 0 24 24" fill="none" xmlns="http://www.w3.org/2000/svg">
<path d="M9.64493 12.4711L8.47306 6.61164C8.4465 6.47882 8.37474 6.3593 8.26999 6.27343C8.16524 6.18755 8.03398 6.14062 7.89853 6.14063H6.72665C6.5912 6.14062 6.45993 6.18755 6.35519 6.27343C6.25044 6.3593 6.17868 6.47882 6.15212 6.61164L4.98024 12.471C4.91677 12.7884 5.12259 13.097 5.43989 13.1605C5.7572 13.2239 6.06591 13.0181 6.12935 12.7008L6.50388 10.8281H8.1213L8.49583 12.7009C8.55931 13.0183 8.86813 13.224 9.18528 13.1605C9.50259 13.097 9.70841 12.7884 9.64493 12.4711ZM6.73825 9.65625L7.207 7.3125H7.41817L7.88692 9.65625H6.73825ZM19.0313 10.8281H17.2735V10.2422C17.2735 9.91859 17.0112 9.65625 16.6876 9.65625C16.364 9.65625 16.1017 9.91859 16.1017 10.2422V10.8281H14.3438C14.0202 10.8281 13.7579 11.0905 13.7579 11.4141C13.7579 11.7377 14.0202 12 14.3438 12H14.4856C14.8195 13.0786 15.3222 13.9065 15.8753 14.5699C15.4251 14.9817 14.9695 15.3194 14.5638 15.644C14.3111 15.8462 14.2701 16.2149 14.4723 16.4676C14.6745 16.7204 15.0433 16.7611 15.2958 16.5591C15.7039 16.2326 16.193 15.8698 16.6876 15.4159C17.1825 15.8702 17.6725 16.2336 18.0793 16.5591C18.332 16.7613 18.7008 16.7202 18.9029 16.4676C19.105 16.2149 19.0641 15.8461 18.8114 15.644C18.4067 15.3202 17.9506 14.9821 17.4999 14.5699C18.053 13.9065 18.5557 13.0786 18.8895 12H19.0313C19.3549 12 19.6173 11.7377 19.6173 11.4141C19.6173 11.0905 19.3549 10.8281 19.0313 10.8281ZM16.6876 13.7088C16.3136 13.2393 15.9771 12.6788 15.7234 11.9961H17.6517C17.3981 12.6788 17.0616 13.2393 16.6876 13.7088Z" fill="white"/>
<path d="M20.2422 5.55469H11.789L11.5379 3.53977C11.4281 2.66195 10.6783 2 9.79363 2H3.75781C2.78855 2 2 2.78855 2 3.75781V16.6875C2 17.6568 2.78855 18.4453 3.75781 18.4453H8.69855L8.94652 20.4602C9.05605 21.3363 9.8059 22 10.6908 22H20.2422C21.2114 22 22 21.2114 22 20.2422V7.3125C22 6.34324 21.2114 5.55469 20.2422 5.55469ZM3.75781 17.2734C3.43473 17.2734 3.17188 17.0106 3.17188 16.6875V3.75781C3.17188 3.43473 3.43473 3.17188 3.75781 3.17188H9.79363C10.0885 3.17188 10.3385 3.3925 10.375 3.68492L12.0689 17.2734H3.75781ZM10.0752 20.0371L9.87926 18.4453H11.4513L10.0752 20.0371ZM20.8281 20.2422C20.8281 20.5653 20.5653 20.8281 20.2422 20.8281H10.9404L13.171 18.2479C13.2272 18.1846 13.269 18.1098 13.2935 18.0287C13.318 17.9476 13.3246 17.8621 13.3128 17.7782L11.9351 6.72656H20.2422C20.5653 6.72656 20.8281 6.98941 20.8281 7.3125V20.2422Z" fill="white"/>
</svg>
