<svg width="25" height="24" viewBox="0 0 25 24" fill="none" xmlns="http://www.w3.org/2000/svg">
<path fill-rule="evenodd" clip-rule="evenodd" d="M11.8109 2.66354L17.9571 4.23886C18.516 4.38207 18.9652 4.73092 19.2305 5.17451C19.5003 5.62214 19.5894 6.16524 19.4401 6.69696L15.737 19.9165C15.5873 20.4519 15.223 20.8811 14.7596 21.1349C14.2913 21.3938 13.7243 21.4782 13.168 21.3358L7.02145 19.7604C6.46212 19.6172 6.01296 19.2687 5.74807 18.8251C5.47781 18.3779 5.38875 17.8351 5.53808 17.3023L9.2419 4.08023C9.39162 3.5452 9.75593 3.11557 10.2197 2.86183C10.6873 2.60368 11.2516 2.51996 11.8109 2.66354ZM20.0052 10.1873C19.8754 9.98018 19.946 9.71138 20.1629 9.58726C20.3794 9.46351 20.6601 9.53108 20.7898 9.73819L21.8406 11.4141C21.9703 11.6212 21.8997 11.89 21.6828 12.0138L20.3706 12.6513L21.1668 13.7202C21.3131 13.917 21.2651 14.1902 21.0593 14.3305C21.039 14.3441 21.0179 14.3562 20.9964 14.3661L19.6819 14.9915L20.4781 16.2965C20.6044 16.5058 20.5299 16.7735 20.3111 16.8947L18.5064 17.9211C18.2899 18.0441 18.0097 17.9758 17.8811 17.7687C17.7525 17.5612 17.8239 17.2931 18.0404 17.1705L19.4589 16.3626L18.63 15.0018C18.5183 14.7851 18.6112 14.5226 18.8377 14.4157L20.1103 13.8102L19.3218 12.7511C19.3065 12.7317 19.2926 12.7104 19.2807 12.688C19.1671 12.4721 19.2577 12.2091 19.4834 12.1001L20.8033 11.4604L20.0052 10.1873ZM6.48285 6.07124C6.70359 5.95373 6.98191 6.02974 7.10476 6.24089C7.22722 6.45203 7.14775 6.71826 6.92701 6.8354L5.57033 7.55623L6.38035 8.74342C6.51778 8.94575 6.45751 9.21675 6.24598 9.34821C6.22218 9.3629 6.19723 9.37538 6.17189 9.38567L4.94228 9.92216L5.72926 11.0568C5.869 11.2584 5.81103 11.5302 5.60027 11.6635L4.17449 12.4449L4.98028 13.8219C5.1039 14.0331 5.02558 14.3 4.80484 14.4186C4.5841 14.5369 4.30501 14.4616 4.1814 14.2505L3.15525 12.4974C3.02972 12.287 3.10573 12.0193 3.32531 11.8992L4.69543 11.1501L3.88311 9.97907C3.87083 9.95998 3.85931 9.93978 3.84933 9.91885C3.74453 9.69963 3.84549 9.44001 4.07506 9.33976L5.32349 8.79483L4.51961 7.61462C4.39715 7.40347 4.47623 7.13724 4.69697 7.0201L6.48285 6.07124ZM10.6792 18.4623C11.1376 18.5798 11.4132 19.0289 11.2888 19.4725C11.166 19.9117 10.6965 20.1754 10.2323 20.0564C9.9475 19.9837 9.73328 19.7825 9.64153 19.5346C9.58548 19.3829 9.57512 19.214 9.62195 19.0455C9.7448 18.6074 10.2143 18.343 10.6792 18.4623ZM6.25136 16.677L15.446 19.0337L18.8888 6.7436L9.69413 4.38721L6.25136 16.677Z" fill="white"/>
</svg>
