<svg width="25" height="24" viewBox="0 0 25 24" fill="none" xmlns="http://www.w3.org/2000/svg">
<path d="M21.4999 12.3103C21.4999 14.615 20.5517 16.8252 18.8639 18.4549C17.1761 20.0845 14.8869 21 12.5 21C10.113 21 7.82387 20.0845 6.13605 18.4549C4.44824 16.8252 3.50004 14.615 3.50004 12.3103C3.49663 11.11 3.73975 9.92087 4.21533 8.8118C4.69091 7.70273 5.38951 6.6957 6.27073 5.84897C6.32583 5.77622 6.39667 5.71594 6.47834 5.6723C6.56 5.62867 6.65053 5.60273 6.74363 5.59628C6.83673 5.58983 6.93017 5.60304 7.01744 5.63498C7.10472 5.66692 7.18375 5.71682 7.24904 5.78123C7.31432 5.84564 7.3643 5.92299 7.3955 6.00793C7.42669 6.09287 7.43836 6.18335 7.42968 6.27308C7.421 6.36281 7.39219 6.44964 7.34525 6.52753C7.29831 6.60542 7.23437 6.67251 7.15786 6.72414C6.3991 7.45725 5.79869 8.32856 5.39148 9.28751C4.98428 10.2465 4.77838 11.2739 4.78574 12.3103C4.78574 14.2858 5.59849 16.1802 7.04518 17.5771C8.49188 18.9739 10.454 19.7586 12.5 19.7586C14.5459 19.7586 16.508 18.9739 17.9547 17.5771C19.4014 16.1802 20.2142 14.2858 20.2142 12.3103C20.2215 11.2739 20.0157 10.2465 19.6084 9.28751C19.2012 8.32856 18.6008 7.45725 17.8421 6.72414C17.7336 6.60766 17.6747 6.45589 17.6773 6.29926C17.6799 6.14263 17.7437 5.99273 17.8559 5.87963C17.9682 5.76653 18.1206 5.6986 18.2825 5.68946C18.4445 5.68032 18.6041 5.73064 18.7292 5.83034C19.6127 6.67929 20.3127 7.68934 20.7883 8.80178C21.264 9.91421 21.5059 11.1068 21.4999 12.3103ZM12.5 13.5517C12.6705 13.5517 12.834 13.4863 12.9545 13.3699C13.0751 13.2535 13.1428 13.0957 13.1428 12.931V3.62069C13.1428 3.45607 13.0751 3.2982 12.9545 3.1818C12.834 3.06539 12.6705 3 12.5 3C12.3295 3 12.166 3.06539 12.0454 3.1818C11.9248 3.2982 11.8571 3.45607 11.8571 3.62069V12.931C11.8571 13.0957 11.9248 13.2535 12.0454 13.3699C12.166 13.4863 12.3295 13.5517 12.5 13.5517Z" fill="white"/>
</svg>
