<svg width="24" height="24" viewBox="0 0 24 24" fill="none" xmlns="http://www.w3.org/2000/svg">
<path d="M12.0832 22C11.8033 21.9997 11.5282 21.9275 11.284 21.7903L8.11565 20.0217C6.54043 19.1416 5.22786 17.8546 4.31377 16.2937C3.39968 14.7329 2.91729 12.9549 2.9165 11.1438V6.23485C2.91646 5.82636 3.06716 5.43237 3.33946 5.12907C3.61177 4.82577 3.98632 4.63472 4.39069 4.59286C5.6513 4.4586 6.89197 4.17672 8.08744 3.75298C9.18352 3.36363 10.235 2.85751 11.2239 2.24325C11.4825 2.08418 11.7799 2 12.0832 2C12.3864 2 12.6838 2.08418 12.9425 2.24325C13.9314 2.85734 14.9829 3.36345 16.0789 3.75298C17.2744 4.17672 18.515 4.4586 19.7756 4.59286C20.18 4.63472 20.5546 4.82577 20.8269 5.12907C21.0992 5.43237 21.2499 5.82636 21.2498 6.23485V11.1438C21.2491 12.9549 20.7667 14.7329 19.8526 16.2937C18.9385 17.8546 17.6259 19.1416 16.0507 20.0217L12.8823 21.7912C12.638 21.9282 12.3629 22.0001 12.0832 22ZM12.0832 3.41664C12.0418 3.41627 12.0011 3.42739 11.9656 3.44876C10.891 4.1162 9.74849 4.66634 8.55753 5.08981C7.25845 5.55055 5.91015 5.85684 4.54018 6.00244C4.48199 6.00741 4.42777 6.03414 4.38825 6.07736C4.34873 6.12057 4.32679 6.17711 4.32676 6.2358V11.1447C4.32726 12.7031 4.74224 14.2331 5.52873 15.5762C6.31522 16.9193 7.44464 18.0268 8.80009 18.784L11.9685 20.5526C12.0032 20.5722 12.0424 20.5826 12.0822 20.5826C12.1221 20.5826 12.1613 20.5722 12.196 20.5526L15.3662 18.784C16.7217 18.0268 17.8511 16.9193 18.6376 15.5762C19.4241 14.2331 19.8391 12.7031 19.8396 11.1447V6.23485C19.8396 6.17616 19.8176 6.11962 19.7781 6.07641C19.7386 6.0332 19.6844 6.00646 19.6262 6.0015C18.2562 5.8559 16.9079 5.5496 15.6088 5.08886C14.4179 4.66599 13.2754 4.11649 12.2007 3.44971C12.1654 3.42782 12.1247 3.41636 12.0832 3.41664Z" fill="white"/>
<path d="M11.613 14.1061C11.4402 14.1063 11.2735 14.0423 11.1448 13.9266L9.02937 12.0371C8.8982 11.9101 8.82103 11.737 8.814 11.5542C8.80698 11.3713 8.87065 11.1927 8.99169 11.056C9.11273 10.9192 9.28173 10.8348 9.46331 10.8204C9.64489 10.8061 9.82495 10.8629 9.96578 10.979L11.5678 12.4093L14.6243 9.13386C14.6873 9.06441 14.7633 9.00823 14.848 8.96857C14.9328 8.92892 15.0245 8.9066 15.1179 8.90289C15.2113 8.89919 15.3045 8.91419 15.3921 8.94701C15.4797 8.97983 15.5599 9.02982 15.6281 9.09407C15.6962 9.15833 15.751 9.23556 15.7892 9.32129C15.8274 9.40701 15.8483 9.49951 15.8506 9.59341C15.8529 9.68731 15.8366 9.78074 15.8027 9.86825C15.7687 9.95577 15.7178 10.0356 15.6529 10.1032L12.1272 13.8822C12.0614 13.953 11.9818 14.0094 11.8933 14.0479C11.8048 14.0865 11.7094 14.1063 11.613 14.1061Z" fill="white"/>
</svg>
