<svg width="24" height="24" viewBox="0 0 24 24" fill="none" xmlns="http://www.w3.org/2000/svg">
<path d="M19.1862 2.63969L19.376 2.44997C19.5188 2.30725 19.6883 2.19406 19.8748 2.11685C20.0613 2.03965 20.2613 1.99994 20.4631 2C20.665 2.00006 20.8649 2.03988 21.0514 2.1172C21.2379 2.19451 21.4073 2.3078 21.55 2.4506C21.6928 2.5934 21.8059 2.76291 21.8832 2.94946C21.9604 3.136 22.0001 3.33593 22 3.53781C21.9999 3.7397 21.9601 3.93961 21.8828 4.1261C21.8055 4.3126 21.6922 4.48205 21.5494 4.62476L21.3597 4.81321C21.6842 5.1772 21.8573 5.65155 21.8433 6.13901C21.8293 6.62648 21.6294 7.09013 21.2846 7.43494L8.18017 20.541C8.09825 20.6225 7.9957 20.6802 7.8835 20.7078L2.79046 21.9811C2.68388 22.0077 2.57224 22.0062 2.46641 21.9768C2.36057 21.9475 2.26413 21.8912 2.18646 21.8135C2.1088 21.7359 2.05255 21.6394 2.02318 21.5336C1.99381 21.4277 1.99232 21.3161 2.01886 21.2095L3.29213 16.1163C3.31998 16.0046 3.37763 15.9025 3.45892 15.8209L15.7357 3.54373C15.6129 3.45731 15.4635 3.41707 15.314 3.43012C15.1644 3.44317 15.0242 3.50866 14.9183 3.61504L10.7267 7.80802C10.6675 7.86721 10.5972 7.91417 10.5199 7.9462C10.4426 7.97824 10.3597 7.99472 10.276 7.99472C10.1923 7.99472 10.1094 7.97824 10.032 7.9462C9.95469 7.91417 9.88442 7.86721 9.82523 7.80802C9.76604 7.74882 9.71908 7.67855 9.68705 7.60121C9.65501 7.52387 9.63853 7.44098 9.63853 7.35727C9.63853 7.27356 9.65501 7.19067 9.68705 7.11333C9.71908 7.03599 9.76604 6.96571 9.82523 6.90652L14.0193 2.71481C14.3644 2.36977 14.8284 2.16987 15.3161 2.15613C15.8039 2.1424 16.2784 2.31588 16.6423 2.64096C16.9921 2.32829 17.4448 2.15534 17.914 2.1551C18.3832 2.15487 18.8361 2.32736 19.1862 2.63969ZM18.3663 3.61504C18.2469 3.49568 18.085 3.42863 17.9162 3.42863C17.7474 3.42863 17.5855 3.49568 17.4661 3.61504L4.48262 16.5963L3.50985 20.4888L7.40221 19.516L20.3857 6.53472C20.4449 6.47558 20.492 6.40532 20.5241 6.32797C20.5562 6.25063 20.5727 6.16771 20.5727 6.08397C20.5727 6.00023 20.5562 5.91731 20.5241 5.83996C20.492 5.76261 20.4449 5.69236 20.3857 5.63322L18.3663 3.61504Z" fill="white"/>
</svg>
