<svg width="24" height="24" viewBox="0 0 24 24" fill="none" xmlns="http://www.w3.org/2000/svg">
<path d="M12.25 3C9.8236 3.00341 7.49664 3.96445 5.77497 5.67418V3.925C5.77497 3.67968 5.67752 3.4444 5.50404 3.27093C5.33057 3.09746 5.0953 3 4.84997 3C4.60465 3 4.36937 3.09746 4.1959 3.27093C4.02243 3.4444 3.92497 3.67968 3.92497 3.925V7.625C3.92497 7.87033 4.02243 8.10561 4.1959 8.27908C4.36937 8.45255 4.60465 8.55 4.84997 8.55H8.54997C8.7953 8.55 9.03058 8.45255 9.20405 8.27908C9.37752 8.10561 9.47497 7.87033 9.47497 7.625C9.47497 7.37968 9.37752 7.1444 9.20405 6.97093C9.03058 6.79746 8.7953 6.7 8.54997 6.7H7.36227C8.63267 5.58244 10.2477 4.93398 11.9382 4.86269C13.6287 4.7914 15.2926 5.30158 16.6525 6.30822C18.0125 7.31485 18.9864 8.75715 19.412 10.3947C19.8376 12.0323 19.6892 13.7663 18.9915 15.3078C18.2937 16.8492 17.0888 18.105 15.5775 18.8658C14.0662 19.6266 12.3398 19.8466 10.686 19.489C9.03226 19.1314 7.55097 18.2179 6.48901 16.9006C5.42705 15.5834 4.84857 13.942 4.84997 12.25C4.84997 12.0047 4.75252 11.7694 4.57904 11.5959C4.40557 11.4225 4.1703 11.325 3.92497 11.325C3.67964 11.325 3.44437 11.4225 3.2709 11.5959C3.09742 11.7694 2.99997 12.0047 2.99997 12.25C2.99997 14.0795 3.54247 15.8679 4.55888 17.389C5.57528 18.9102 7.01993 20.0958 8.71015 20.7959C10.4004 21.496 12.2602 21.6792 14.0546 21.3223C15.8489 20.9654 17.4971 20.0844 18.7907 18.7907C20.0844 17.4971 20.9653 15.8489 21.3222 14.0546C21.6792 12.2603 21.496 10.4004 20.7959 8.71018C20.0958 7.01996 18.9102 5.57531 17.389 4.55891C15.8678 3.5425 14.0795 3 12.25 3Z" fill="white"/>
</svg>
