<svg width="24" height="24" viewBox="0 0 24 24" fill="none" xmlns="http://www.w3.org/2000/svg">
<path d="M6.00005 10C4.90005 10 4.00005 10.9 4.00005 12C4.00005 13.1 4.90005 14 6.00005 14C7.10005 14 8.00005 13.1 8.00005 12C8.00005 10.9 7.10005 10 6.00005 10ZM18.0001 10C16.9001 10 16.0001 10.9 16.0001 12C16.0001 13.1 16.9001 14 18.0001 14C19.1001 14 20.0001 13.1 20.0001 12C20.0001 10.9 19.1001 10 18.0001 10ZM12 10C10.9 10 10 10.9 10 12C10 13.1 10.9 14 12 14C13.1 14 14.0001 13.1 14.0001 12C14.0001 10.9 13.1 10 12 10Z" fill="white" fill-opacity="0.6"/>
</svg>
