<svg width="24" height="24" viewBox="0 0 24 24" fill="none" xmlns="http://www.w3.org/2000/svg">
<path d="M17.3288 19.274V17.4779C17.3288 15.3625 15.6943 14.0974 14.1233 12.863C13.9063 12.6929 13.6301 12.3698 13.6301 11.8767C13.6301 11.3836 13.8789 10.9027 14.1233 10.6971C15.6518 9.41095 17.3288 8.19754 17.3288 6.08218V4.72603H18.5617V3H5V4.72603H6.23286V6.08222C6.23286 8.19761 7.90981 9.41099 9.43837 10.6971C9.68274 10.9028 9.93154 11.3836 9.93154 11.8767C9.93154 12.3699 9.65536 12.6929 9.43837 12.8631C7.86745 14.0974 6.23286 15.3626 6.23286 17.4779V19.274H5V21H18.5616V19.274H17.3288ZM8.66732 7.68492C8.21286 7.17055 7.95893 6.67545 7.95893 6.08218V4.72603H15.6027V6.08222C15.6027 6.67545 15.3487 7.17062 14.8943 7.68496H8.66732V7.68492ZM15.6027 18.7929L12.6998 17.6599C12.1943 17.4627 11.3676 17.4627 10.8621 17.6599L7.95893 18.793V17.478C7.95893 16.2811 8.91022 15.4729 10.4626 14.2533L10.5038 14.221C11.0931 13.7589 11.4753 13.1154 11.6051 12.4062C11.7212 12.4321 11.8405 12.4321 11.9566 12.4062C12.0858 13.1152 12.4685 13.7587 13.0571 14.2203L13.099 14.2533C14.6514 15.4728 15.6027 16.2808 15.6027 17.478L15.6027 18.7929Z" fill="white"/>
</svg>
